<?xml version="1.0" encoding="utf-8"?>
<!-- Generator: Adobe Illustrator 25.2.3, SVG Export Plug-In . SVG Version: 6.00 Build 0)  -->
<svg version="1.1" id="Слой_1" xmlns="http://www.w3.org/2000/svg" xmlns:xlink="http://www.w3.org/1999/xlink" x="0px" y="0px"
	 viewBox="0 0 50 50" style="enable-background:new 0 0 50 50;" xml:space="preserve">
<g>
	<path d="M39.6,6.2c-5.8,0-10.4,4.7-10.4,10.4v2.1h4.1v-2.1c0-3.5,2.8-6.2,6.2-6.2s6.2,2.8,6.2,6.2s-2.8,6.2-6.2,6.2H0V27h39.6
		C45.4,27,50,22.3,50,16.6S45.3,6.2,39.6,6.2z"/>
	<path d="M25,10.5V8.3C25,3.7,21.3,0,16.7,0S8.3,3.7,8.3,8.3v2.1h4.1V8.3c0-2.3,1.8-4.1,4.1-4.1s4.1,1.8,4.1,4.1v2.1
		c0,2.3-1.8,4.1-4.1,4.1H0v4.1h16.6C21.3,18.7,25,15,25,10.5z"/>
	<path d="M33.4,39.5v2.1c0,2.3-1.8,4.1-4.1,4.1s-4.1-1.8-4.1-4.1v-2.1H21v2.1c0,4.6,3.7,8.3,8.3,8.3s8.3-3.7,8.3-8.3v-2.1
		c0-4.6-3.7-8.3-8.3-8.3H0v4.1h29.4C31.5,35.4,33.4,37.2,33.4,39.5z"/>
</g>
</svg>
