<?xml version="1.0" encoding="utf-8"?>
<!-- Generator: Adobe Illustrator 25.2.3, SVG Export Plug-In . SVG Version: 6.00 Build 0)  -->
<svg version="1.1" id="Слой_1" xmlns="http://www.w3.org/2000/svg" xmlns:xlink="http://www.w3.org/1999/xlink" x="0px" y="0px"
	 viewBox="0 0 50 50" style="enable-background:new 0 0 50 50;" xml:space="preserve">
<g>
	<path d="M25,50C11.2,50,0,40.7,0,29.2c0-4.8,4-11.1,12-18.7C17.9,5.1,23.6,1,23.9,0.8L25,0l1.1,0.8c0.2,0.2,6,4.3,11.8,9.8
		c8,7.6,12,13.8,12,18.7C50,40.7,38.8,50,25,50z M25,3.9c-1.9,1.4-6.2,4.8-10.3,8.8C7.3,19.6,3.6,25.4,3.6,29.3
		c0,9.8,9.6,17.8,21.4,17.8s21.4-8,21.4-17.8c0-3.9-3.9-9.7-11.1-16.6C31.1,8.7,26.9,5.4,25,3.9z"/>
	<path d="M18.8,27.7c-2.4,0-4.4-2-4.4-4.4s2-4.4,4.4-4.4s4.4,2,4.4,4.4S21.2,27.7,18.8,27.7z M18.8,21.8c-0.8,0-1.4,0.7-1.4,1.4
		c0,0.8,0.7,1.4,1.4,1.4s1.4-0.7,1.4-1.4C20.2,22.5,19.5,21.8,18.8,21.8z"/>
	<path d="M31.1,39.4c-2.4,0-4.4-2-4.4-4.4c0-2.4,2-4.4,4.4-4.4s4.4,2,4.4,4.4C35.4,37.4,33.5,39.4,31.1,39.4z M31.1,33.6
		c-0.8,0-1.4,0.7-1.4,1.4c0,0.8,0.7,1.4,1.4,1.4c0.8,0,1.4-0.7,1.4-1.4C32.5,34.2,31.8,33.6,31.1,33.6z"/>
	<path d="M15.6,39.5L32,16.6l2.4,1.7L18,41.2L15.6,39.5z"/>
</g>
</svg>
