<?xml version="1.0" encoding="utf-8"?>
<!-- Generator: Adobe Illustrator 25.2.3, SVG Export Plug-In . SVG Version: 6.00 Build 0)  -->
<svg version="1.1" id="Слой_1" xmlns="http://www.w3.org/2000/svg" xmlns:xlink="http://www.w3.org/1999/xlink" x="0px" y="0px"
	 viewBox="0 0 50 50" style="enable-background:new 0 0 50 50;" xml:space="preserve">
<g>
	<path d="M25,4C10.2,3.7-0.3,19.9,5.8,33.4c7.3,16.8,31.3,16.8,38.6,0C50.4,20,39.8,3.8,25,4z M25,44.3c-7.2,0-13.7-4-17.1-10.4H42
		C38.8,40.2,32.1,44.3,25,44.3z M42.9,32.1H7.2C3.3,22.2,8.1,11,17.9,7.2c2.3-0.9,4.7-1.3,7.1-1.3C38.3,5.6,48,20,42.9,32.1z"/>
	<path d="M25,11c0.5,0,0.9-0.4,0.9-0.9l0,0V8c0-0.5-0.4-0.9-0.9-0.9c-0.5,0-0.9,0.4-0.9,0.9v2.1C24.1,10.7,24.6,11,25,11L25,11z"/>
	<path d="M36.5,12.4l-1.5,1.5c-0.4,0.4-0.3,1,0,1.2c0.4,0.3,0.9,0.3,1.2,0l1.5-1.5c0.4-0.4,0.3-1,0-1.2C37.3,12,36.8,12,36.5,12.4z"
		/>
	<path d="M39.9,25.9H42c0.5,0,0.9-0.4,0.9-0.9c0-0.5-0.4-0.9-0.9-0.9l0,0h-2.1c-0.5,0-0.9,0.4-0.9,0.9
		C39.1,25.6,39.4,25.9,39.9,25.9z"/>
	<path d="M10.2,24.2H8.1c-0.5,0-0.9,0.4-0.9,1c0,0.5,0.4,0.9,0.9,0.9h2.1c0.5,0,0.9-0.4,0.9-0.9C11,24.6,10.7,24.2,10.2,24.2z"/>
	<path d="M13.6,12.4c-0.4-0.4-1-0.3-1.2,0c-0.3,0.4-0.3,0.9,0,1.2l1.5,1.5c0.4,0.4,1,0.4,1.2,0c0.4-0.4,0.4-1,0-1.2L13.6,12.4z"/>
	<path d="M25,0C11.2,0,0,11.2,0,25.1c1.3,33.2,48.7,33.2,50,0C50,11.2,38.9,0,25,0z M25,48.3c-12.9,0-23.2-10.4-23.2-23.2
		C3.1-5.8,47-5.8,48.3,25.1C48.3,37.9,37.8,48.3,25,48.3z"/>
	<path d="M34.2,18.8l-10,2c-2.4,0.4-3.9,2.7-3.6,5c0.4,2.4,2.7,3.9,5,3.6c1.1-0.2,1.9-0.7,2.6-1.5l6.7-7.6c0.3-0.4,0.3-1-0.1-1.2
		C34.6,18.8,34.4,18.7,34.2,18.8z M26.9,26.7c-0.9,1.1-2.5,1.2-3.6,0.4c-1.1-0.9-1.2-2.5-0.4-3.6c0.4-0.5,1-0.8,1.5-1l7.3-1.5
		L26.9,26.7z"/>
</g>
</svg>
