<?xml version="1.0" encoding="utf-8"?>
<!-- Generator: Adobe Illustrator 25.2.3, SVG Export Plug-In . SVG Version: 6.00 Build 0)  -->
<svg version="1.1" id="Слой_1" xmlns="http://www.w3.org/2000/svg" xmlns:xlink="http://www.w3.org/1999/xlink" x="0px" y="0px"
	 viewBox="0 0 50 50" style="enable-background:new 0 0 50 50;" xml:space="preserve">
<g>
	<path d="M44.3,34.5c0.3-1.4,0.2-2.8-0.3-4.2c-0.6-1.7-1.7-3.1-3.2-4.1c0,0,0,0,0,0c0-5.5-2.8-10.7-7.6-13.6c-5-3-11.2-3.1-16.2-0.2
		c-4.8,2.8-7.7,7.8-7.9,13.2c-0.4,0.1-0.8,0.3-1.2,0.5c-2.9,1.2-5.3,3.5-6.7,6.4c-1.4,2.9-1.6,6.2-0.7,9.2c0.9,3.1,2.9,5.7,5.7,7.3
		c0,0,0.1,0,0.1,0c1,0.6,2.2,0.9,3.3,0.9h36.5c1,0,1.9-0.5,2.5-1.4c1.6-2.6,1.9-5.7,0.8-8.5C48.5,37.6,46.7,35.6,44.3,34.5z
		 M18.2,14.4c4.3-2.5,9.6-2.4,13.9,0.2c3.8,2.3,6.2,6.3,6.4,10.7c-0.9-0.2-1.8-0.3-2.8-0.2c-0.7,0.1-1.4,0.3-2.1,0.6
		c-0.9-1.3-2.2-2.4-3.6-3.2c-1.8-1-3.7-1.4-5.7-1.3c-2,0.1-3.9,0.8-5.5,2c-0.9,0.7-1.8,1.5-2.4,2.4c-1.6-0.4-3.2-0.6-4.8-0.4
		C11.8,20.7,14.3,16.7,18.2,14.4z M3.3,33.5c1.4-3,4-5,7-5.8c0.1,0,0.3,0,0.4-0.1c1.4-0.3,2.9-0.3,4.4,0c0,0,0,0.1-0.1,0.1
		c-0.2,0.6,0,1.3,0.6,1.5c0.1,0.1,0.3,0.1,0.4,0.1c0.4,0,0.9-0.3,1.1-0.7c1.2-3,4-5,7.2-5.2c2.8-0.2,5.6,1.1,7.2,3.4
		c-0.2,0.2-0.4,0.4-0.6,0.6c-0.4,0.5-0.4,1.2,0,1.6c0.5,0.4,1.2,0.4,1.6,0c1.7-1.7,4.3-2.1,6.4-1.1c0.1,0,0.1,0.1,0.2,0.1
		c0.1,0.1,0.3,0.1,0.4,0.2c2.2,1.4,3.1,4.1,2.3,6.5c0,0,0,0.1,0,0.1c-0.1,0.2-0.1,0.5,0,0.7c0,0,0,0,0,0.1c0.1,0.3,0.4,0.6,0.7,0.7
		c0,0,0.1,0,0.2,0c2.1,0.8,3.8,2.4,4.6,4.5c0.8,2.2,0.6,4.6-0.7,6.5c-0.1,0.2-0.3,0.3-0.5,0.3H9.6c-0.8,0-1.5-0.2-2.2-0.6
		c0,0,0,0,0,0C2.7,44.2,1,38.4,3.3,33.5z"/>
	<path d="M17,13.3c0.2,0.4,0.6,0.6,1,0.6c0.2,0,0.3,0,0.5-0.1c0.6-0.3,0.8-1,0.5-1.5l-4.4-8.8c-0.3-0.6-1-0.8-1.5-0.5
		c-0.6,0.3-0.8,1-0.5,1.5L17,13.3z"/>
	<path d="M25.6,12.1L25.6,12.1c0.6,0,1.1-0.5,1.2-1.1l0.2-9.8c0-0.6-0.5-1.1-1.1-1.2c0,0,0,0,0,0c-0.6,0-1.1,0.5-1.1,1.1L24.5,11
		C24.5,11.6,24.9,12.1,25.6,12.1z"/>
	<path d="M32,14.4c0.2,0.1,0.4,0.2,0.6,0.2c0.4,0,0.7-0.2,1-0.5l5.5-8.2c0.3-0.5,0.2-1.2-0.3-1.6c-0.5-0.3-1.2-0.2-1.6,0.3l-5.5,8.2
		C31.3,13.3,31.5,14,32,14.4z"/>
	<path d="M47.9,25.1l-7.9-0.6c-0.6,0-1.2,0.4-1.2,1.1c0,0.6,0.4,1.2,1.1,1.2l7.9,0.6h0.1c0.6,0,1.1-0.5,1.1-1.1
		C49,25.7,48.5,25.1,47.9,25.1z"/>
	<path d="M38,19.6c0.2,0,0.3,0,0.5-0.1l7.9-3.8c0.6-0.3,0.8-1,0.5-1.5c-0.3-0.6-1-0.8-1.5-0.5l-7.9,3.8c-0.6,0.3-0.8,1-0.5,1.5
		C37.1,19.4,37.5,19.6,38,19.6z"/>
	<path d="M4.4,13.5l7.5,5.1c0.2,0.1,0.4,0.2,0.6,0.2c0.4,0,0.7-0.2,0.9-0.5c0.4-0.5,0.2-1.2-0.3-1.6l-7.5-5.1
		c-0.5-0.4-1.2-0.2-1.6,0.3C3.7,12.4,3.9,13.1,4.4,13.5z"/>
	<path d="M1.9,24.6l8.2,0.6h0.1c0.6,0,1.1-0.5,1.1-1.1c0-0.6-0.4-1.2-1.1-1.2L2,22.3c-0.6,0-1.2,0.4-1.2,1.1
		C0.8,24,1.3,24.5,1.9,24.6z"/>
</g>
<rect x="139.8" y="-47.7" width="39.1" height="141.7"/>
</svg>
